<?xml version="1.0" standalone="no"?>
<!DOCTYPE svg PUBLIC "-//W3C//DTD SVG 20010904//EN"
 "http://www.w3.org/TR/2001/REC-SVG-20010904/DTD/svg10.dtd">
<svg version="1.0" xmlns="http://www.w3.org/2000/svg"
 width="500.000000pt" height="500.000000pt" viewBox="0 0 500.000000 500.000000"
 preserveAspectRatio="xMidYMid meet">

<g transform="translate(0.000000,500.000000) scale(0.100000,-0.100000)"
fill="#4B49AC" stroke="none">
<path d="M3495 4080 c-49 -10 -119 -28 -155 -40 -107 -35 -299 -136 -394 -207
-151 -113 -394 -371 -575 -612 l-64 -83 -46 6 c-116 18 -217 22 -304 15 -257
-22 -500 -135 -681 -317 -110 -112 -122 -136 -85 -173 19 -19 28 -20 102 -14
100 8 258 -8 381 -40 108 -27 245 -82 253 -100 2 -7 -3 -27 -11 -44 -21 -41
-20 -63 6 -96 l22 -28 -30 -20 c-16 -11 -65 -57 -110 -101 -58 -58 -90 -100
-113 -148 -65 -136 -102 -370 -67 -423 15 -24 21 -25 102 -25 253 0 464 109
589 303 18 27 18 28 39 9 34 -31 55 -33 101 -13 53 23 52 24 94 -82 65 -163
91 -305 91 -505 0 -130 0 -133 24 -143 41 -19 73 -2 159 84 195 193 308 445
323 721 6 98 -3 217 -22 290 -4 18 14 36 117 116 157 121 374 314 465 414 283
307 418 685 375 1054 -18 155 -27 173 -92 196 -82 29 -370 33 -494 6z m405
-106 c61 -10 65 -23 64 -224 0 -148 -3 -189 -23 -267 -12 -51 -27 -96 -33 -99
-9 -6 -548 522 -548 537 0 9 173 49 255 59 71 9 211 6 285 -6z m-346 -413
l310 -310 -49 -83 c-75 -130 -144 -215 -288 -354 -258 -251 -560 -478 -862
-649 -71 -41 -155 -85 -186 -99 l-56 -24 -198 198 -199 199 64 125 c195 387
610 922 880 1139 79 62 244 167 264 167 6 0 150 -139 320 -309z m-1433 -518
c42 -2 82 -8 89 -13 9 -6 -8 -41 -67 -136 -44 -71 -97 -159 -117 -196 -21 -38
-41 -68 -45 -68 -5 0 -37 13 -72 29 -134 60 -348 111 -470 111 -33 0 -59 3
-59 8 0 7 46 46 115 96 90 66 255 134 380 155 112 20 139 21 246 14z m22 -891
l108 -108 -44 -60 c-104 -141 -226 -211 -401 -232 -54 -7 -69 -6 -73 5 -3 8 2
53 10 100 18 98 68 210 118 268 30 34 156 134 169 135 3 0 54 -49 113 -108z
m883 21 c10 -96 -2 -265 -26 -358 -26 -101 -97 -249 -161 -336 -77 -105 -74
-105 -88 25 -14 141 -47 273 -99 399 l-39 96 121 70 c67 39 155 92 196 120 41
27 78 50 82 50 3 1 10 -29 14 -66z"/>
<path d="M3057 3419 c-101 -15 -196 -89 -240 -187 -28 -64 -28 -170 0 -233 28
-63 86 -125 147 -157 68 -36 196 -38 267 -5 60 27 118 85 149 148 37 75 35
189 -3 267 -58 118 -188 186 -320 167z m95 -119 c110 -31 170 -167 119 -268
-37 -73 -98 -106 -183 -100 -64 5 -93 21 -142 82 -27 33 -31 45 -31 99 1 96
49 159 145 188 35 10 50 10 92 -1z"/>
<path d="M1343 2237 c-256 -255 -268 -272 -225 -310 41 -38 56 -27 304 220
209 209 238 241 238 269 0 34 -26 64 -56 64 -11 0 -115 -96 -261 -243z"/>
<path d="M1152 1667 c-158 -159 -242 -250 -242 -263 0 -12 8 -28 18 -37 42
-38 56 -28 310 226 133 133 242 249 242 257 0 29 -30 60 -58 60 -23 0 -72 -45
-270 -243z"/>
<path d="M2395 1641 c-16 -10 -130 -120 -252 -243 -234 -235 -247 -253 -205
-291 42 -38 57 -28 310 226 133 134 242 251 242 260 0 18 -42 67 -57 67 -4 0
-21 -9 -38 -19z"/>
<path d="M1182 1277 c-133 -134 -242 -250 -242 -258 0 -28 30 -59 58 -59 22 0
73 46 270 243 161 161 242 249 242 263 0 12 -8 28 -18 37 -42 38 -57 28 -310
-226z"/>
<path d="M1604 1228 c-133 -134 -244 -251 -248 -261 -7 -21 34 -67 61 -67 9 0
126 109 260 242 194 194 243 248 243 269 0 30 -28 59 -56 59 -12 0 -112 -93
-260 -242z"/>
</g>
</svg>
